<mxfile host="app.diagrams.net" modified="2024-05-04T12:50:24.490Z" agent="Mozilla/5.0 (Windows NT 10.0; Win64; x64) AppleWebKit/537.36 (KHTML, like Gecko) Chrome/122.0.0.0 YaBrowser/24.4.0.0 Safari/537.36" etag="h1IBaNPyQ2kN9gjKphyZ" version="24.3.1" type="device">
  <diagram name="Страница — 1" id="f5qaqixOcX6vG_OhwR0j">
    <mxGraphModel dx="810" dy="777" grid="1" gridSize="10" guides="1" tooltips="1" connect="1" arrows="1" fold="1" page="1" pageScale="1" pageWidth="649" pageHeight="1011" math="0" shadow="0">
      <root>
        <mxCell id="0" />
        <mxCell id="1" parent="0" />
        <mxCell id="wh9IgdBoD6jiQ6J2SFbv-5" style="edgeStyle=orthogonalEdgeStyle;rounded=0;orthogonalLoop=1;jettySize=auto;html=1;exitX=0.5;exitY=0.5;exitDx=0;exitDy=20;exitPerimeter=0;entryX=0.5;entryY=0;entryDx=0;entryDy=0;endArrow=none;endFill=0;fontFamily=Times New Roman;" edge="1" parent="1" source="wh9IgdBoD6jiQ6J2SFbv-1" target="wh9IgdBoD6jiQ6J2SFbv-2">
          <mxGeometry relative="1" as="geometry" />
        </mxCell>
        <mxCell id="wh9IgdBoD6jiQ6J2SFbv-1" value="myStack::pop()" style="html=1;dashed=0;whiteSpace=wrap;shape=mxgraph.dfd.start;fontFamily=Times New Roman;" vertex="1" parent="1">
          <mxGeometry x="40" y="40" width="120" height="40" as="geometry" />
        </mxCell>
        <mxCell id="wh9IgdBoD6jiQ6J2SFbv-3" value="Нет" style="edgeStyle=orthogonalEdgeStyle;rounded=0;orthogonalLoop=1;jettySize=auto;html=1;exitX=1;exitY=0.5;exitDx=0;exitDy=0;endArrow=none;endFill=0;fontFamily=Times New Roman;" edge="1" parent="1" source="wh9IgdBoD6jiQ6J2SFbv-2">
          <mxGeometry relative="1" as="geometry">
            <mxPoint x="200" y="160" as="targetPoint" />
          </mxGeometry>
        </mxCell>
        <mxCell id="wh9IgdBoD6jiQ6J2SFbv-6" value="Да" style="edgeStyle=orthogonalEdgeStyle;rounded=0;orthogonalLoop=1;jettySize=auto;html=1;exitX=0.5;exitY=1;exitDx=0;exitDy=0;endArrow=none;endFill=0;fontFamily=Times New Roman;" edge="1" parent="1" source="wh9IgdBoD6jiQ6J2SFbv-2">
          <mxGeometry relative="1" as="geometry">
            <mxPoint x="100" y="240" as="targetPoint" />
          </mxGeometry>
        </mxCell>
        <mxCell id="wh9IgdBoD6jiQ6J2SFbv-2" value="Указатель на структуру не нулевой" style="rhombus;whiteSpace=wrap;html=1;fontFamily=Times New Roman;" vertex="1" parent="1">
          <mxGeometry x="40" y="120" width="120" height="80" as="geometry" />
        </mxCell>
        <mxCell id="wh9IgdBoD6jiQ6J2SFbv-4" value="Конец" style="html=1;dashed=0;whiteSpace=wrap;shape=mxgraph.dfd.start;fontFamily=Times New Roman;" vertex="1" parent="1">
          <mxGeometry x="200" y="140" width="120" height="40" as="geometry" />
        </mxCell>
        <mxCell id="wh9IgdBoD6jiQ6J2SFbv-13" style="edgeStyle=orthogonalEdgeStyle;rounded=0;orthogonalLoop=1;jettySize=auto;html=1;exitX=0.5;exitY=1;exitDx=0;exitDy=0;entryX=0.5;entryY=0;entryDx=0;entryDy=0;endArrow=none;endFill=0;fontFamily=Times New Roman;" edge="1" parent="1" source="wh9IgdBoD6jiQ6J2SFbv-7" target="wh9IgdBoD6jiQ6J2SFbv-8">
          <mxGeometry relative="1" as="geometry" />
        </mxCell>
        <mxCell id="wh9IgdBoD6jiQ6J2SFbv-7" value="Инициализация вспомогательной переменной curr = указатель на структуру" style="rounded=0;whiteSpace=wrap;html=1;fontFamily=Times New Roman;" vertex="1" parent="1">
          <mxGeometry x="40" y="240" width="120" height="80" as="geometry" />
        </mxCell>
        <mxCell id="wh9IgdBoD6jiQ6J2SFbv-12" style="edgeStyle=orthogonalEdgeStyle;rounded=0;orthogonalLoop=1;jettySize=auto;html=1;exitX=0.5;exitY=1;exitDx=0;exitDy=0;entryX=0.5;entryY=0;entryDx=0;entryDy=0;endArrow=none;endFill=0;fontFamily=Times New Roman;" edge="1" parent="1" source="wh9IgdBoD6jiQ6J2SFbv-8" target="wh9IgdBoD6jiQ6J2SFbv-9">
          <mxGeometry relative="1" as="geometry" />
        </mxCell>
        <mxCell id="wh9IgdBoD6jiQ6J2SFbv-8" value="C, пока curr != nullptr" style="shape=loopLimit;whiteSpace=wrap;html=1;fontFamily=Times New Roman;" vertex="1" parent="1">
          <mxGeometry x="40" y="360" width="120" height="80" as="geometry" />
        </mxCell>
        <mxCell id="wh9IgdBoD6jiQ6J2SFbv-11" style="edgeStyle=orthogonalEdgeStyle;rounded=0;orthogonalLoop=1;jettySize=auto;html=1;exitX=0.5;exitY=1;exitDx=0;exitDy=0;entryX=0.5;entryY=1;entryDx=0;entryDy=0;endArrow=none;endFill=0;fontFamily=Times New Roman;" edge="1" parent="1" source="wh9IgdBoD6jiQ6J2SFbv-9" target="wh9IgdBoD6jiQ6J2SFbv-10">
          <mxGeometry relative="1" as="geometry" />
        </mxCell>
        <mxCell id="wh9IgdBoD6jiQ6J2SFbv-9" value="curr = указатель на следующий элемент" style="rounded=0;whiteSpace=wrap;html=1;fontFamily=Times New Roman;" vertex="1" parent="1">
          <mxGeometry x="40" y="480" width="120" height="80" as="geometry" />
        </mxCell>
        <mxCell id="wh9IgdBoD6jiQ6J2SFbv-15" style="edgeStyle=orthogonalEdgeStyle;rounded=0;orthogonalLoop=1;jettySize=auto;html=1;exitX=0.5;exitY=0;exitDx=0;exitDy=0;entryX=0.5;entryY=0;entryDx=0;entryDy=0;endArrow=none;endFill=0;fontFamily=Times New Roman;" edge="1" parent="1" source="wh9IgdBoD6jiQ6J2SFbv-10" target="wh9IgdBoD6jiQ6J2SFbv-14">
          <mxGeometry relative="1" as="geometry" />
        </mxCell>
        <mxCell id="wh9IgdBoD6jiQ6J2SFbv-10" value="C" style="shape=loopLimit;whiteSpace=wrap;html=1;direction=west;fontFamily=Times New Roman;" vertex="1" parent="1">
          <mxGeometry x="40" y="600" width="120" height="80" as="geometry" />
        </mxCell>
        <mxCell id="wh9IgdBoD6jiQ6J2SFbv-16" style="edgeStyle=orthogonalEdgeStyle;rounded=0;orthogonalLoop=1;jettySize=auto;html=1;exitX=0.5;exitY=1;exitDx=0;exitDy=0;endArrow=none;endFill=0;fontFamily=Times New Roman;" edge="1" parent="1" source="wh9IgdBoD6jiQ6J2SFbv-14">
          <mxGeometry relative="1" as="geometry">
            <mxPoint x="100" y="840" as="targetPoint" />
          </mxGeometry>
        </mxCell>
        <mxCell id="wh9IgdBoD6jiQ6J2SFbv-17" style="edgeStyle=orthogonalEdgeStyle;rounded=0;orthogonalLoop=1;jettySize=auto;html=1;exitX=1;exitY=0.5;exitDx=0;exitDy=0;endArrow=none;endFill=0;fontFamily=Times New Roman;" edge="1" parent="1" source="wh9IgdBoD6jiQ6J2SFbv-14">
          <mxGeometry relative="1" as="geometry">
            <mxPoint x="200" y="760" as="targetPoint" />
          </mxGeometry>
        </mxCell>
        <mxCell id="wh9IgdBoD6jiQ6J2SFbv-14" value="сurr == указатель на начало структуры" style="rhombus;whiteSpace=wrap;html=1;fontFamily=Times New Roman;" vertex="1" parent="1">
          <mxGeometry x="40" y="720" width="120" height="80" as="geometry" />
        </mxCell>
        <mxCell id="wh9IgdBoD6jiQ6J2SFbv-18" value="sHead = nullprt&lt;div&gt;delete curr&lt;/div&gt;" style="rounded=0;whiteSpace=wrap;html=1;fontFamily=Times New Roman;" vertex="1" parent="1">
          <mxGeometry x="200" y="720" width="120" height="80" as="geometry" />
        </mxCell>
        <mxCell id="wh9IgdBoD6jiQ6J2SFbv-19" value="A" style="ellipse;whiteSpace=wrap;html=1;aspect=fixed;fontFamily=Times New Roman;" vertex="1" parent="1">
          <mxGeometry x="80" y="840" width="40" height="40" as="geometry" />
        </mxCell>
        <mxCell id="wh9IgdBoD6jiQ6J2SFbv-33" style="edgeStyle=orthogonalEdgeStyle;rounded=0;orthogonalLoop=1;jettySize=auto;html=1;exitX=0.5;exitY=1;exitDx=0;exitDy=0;entryX=0.5;entryY=0;entryDx=0;entryDy=0;endArrow=none;endFill=0;fontFamily=Times New Roman;" edge="1" parent="1" source="wh9IgdBoD6jiQ6J2SFbv-20" target="wh9IgdBoD6jiQ6J2SFbv-22">
          <mxGeometry relative="1" as="geometry" />
        </mxCell>
        <mxCell id="wh9IgdBoD6jiQ6J2SFbv-20" value="A" style="ellipse;whiteSpace=wrap;html=1;aspect=fixed;fontFamily=Times New Roman;" vertex="1" parent="1">
          <mxGeometry x="480" y="40" width="40" height="40" as="geometry" />
        </mxCell>
        <mxCell id="wh9IgdBoD6jiQ6J2SFbv-21" style="edgeStyle=orthogonalEdgeStyle;rounded=0;orthogonalLoop=1;jettySize=auto;html=1;exitX=0.5;exitY=1;exitDx=0;exitDy=0;entryX=0.5;entryY=0;entryDx=0;entryDy=0;endArrow=none;endFill=0;fontFamily=Times New Roman;" edge="1" parent="1" source="wh9IgdBoD6jiQ6J2SFbv-22" target="wh9IgdBoD6jiQ6J2SFbv-24">
          <mxGeometry relative="1" as="geometry" />
        </mxCell>
        <mxCell id="wh9IgdBoD6jiQ6J2SFbv-22" value="Инициализация вспомогательной переменной prev = указатель на структуру" style="rounded=0;whiteSpace=wrap;html=1;fontFamily=Times New Roman;" vertex="1" parent="1">
          <mxGeometry x="440" y="120" width="120" height="80" as="geometry" />
        </mxCell>
        <mxCell id="wh9IgdBoD6jiQ6J2SFbv-23" style="edgeStyle=orthogonalEdgeStyle;rounded=0;orthogonalLoop=1;jettySize=auto;html=1;exitX=0.5;exitY=1;exitDx=0;exitDy=0;entryX=0.5;entryY=0;entryDx=0;entryDy=0;endArrow=none;endFill=0;fontFamily=Times New Roman;" edge="1" parent="1" source="wh9IgdBoD6jiQ6J2SFbv-24" target="wh9IgdBoD6jiQ6J2SFbv-26">
          <mxGeometry relative="1" as="geometry" />
        </mxCell>
        <mxCell id="wh9IgdBoD6jiQ6J2SFbv-24" value="C, пока следующий элемент != curr" style="shape=loopLimit;whiteSpace=wrap;html=1;fontFamily=Times New Roman;" vertex="1" parent="1">
          <mxGeometry x="440" y="240" width="120" height="80" as="geometry" />
        </mxCell>
        <mxCell id="wh9IgdBoD6jiQ6J2SFbv-25" style="edgeStyle=orthogonalEdgeStyle;rounded=0;orthogonalLoop=1;jettySize=auto;html=1;exitX=0.5;exitY=1;exitDx=0;exitDy=0;entryX=0.5;entryY=1;entryDx=0;entryDy=0;endArrow=none;endFill=0;fontFamily=Times New Roman;" edge="1" parent="1" source="wh9IgdBoD6jiQ6J2SFbv-26" target="wh9IgdBoD6jiQ6J2SFbv-27">
          <mxGeometry relative="1" as="geometry" />
        </mxCell>
        <mxCell id="wh9IgdBoD6jiQ6J2SFbv-26" value="prev = указатель на следующий элемент" style="rounded=0;whiteSpace=wrap;html=1;fontFamily=Times New Roman;" vertex="1" parent="1">
          <mxGeometry x="440" y="360" width="120" height="80" as="geometry" />
        </mxCell>
        <mxCell id="wh9IgdBoD6jiQ6J2SFbv-32" style="edgeStyle=orthogonalEdgeStyle;rounded=0;orthogonalLoop=1;jettySize=auto;html=1;exitX=0.5;exitY=0;exitDx=0;exitDy=0;entryX=0.5;entryY=0;entryDx=0;entryDy=0;endArrow=none;endFill=0;fontFamily=Times New Roman;" edge="1" parent="1" source="wh9IgdBoD6jiQ6J2SFbv-27" target="wh9IgdBoD6jiQ6J2SFbv-28">
          <mxGeometry relative="1" as="geometry" />
        </mxCell>
        <mxCell id="wh9IgdBoD6jiQ6J2SFbv-27" value="C" style="shape=loopLimit;whiteSpace=wrap;html=1;direction=west;fontFamily=Times New Roman;" vertex="1" parent="1">
          <mxGeometry x="440" y="480" width="120" height="80" as="geometry" />
        </mxCell>
        <mxCell id="wh9IgdBoD6jiQ6J2SFbv-28" value="prev-&amp;gt;next = nullprt&lt;div&gt;delete curr&lt;/div&gt;" style="rounded=0;whiteSpace=wrap;html=1;fontFamily=Times New Roman;" vertex="1" parent="1">
          <mxGeometry x="440" y="600" width="120" height="80" as="geometry" />
        </mxCell>
        <mxCell id="wh9IgdBoD6jiQ6J2SFbv-29" value="Конец" style="html=1;dashed=0;whiteSpace=wrap;shape=mxgraph.dfd.start;fontFamily=Times New Roman;" vertex="1" parent="1">
          <mxGeometry x="440" y="740" width="120" height="40" as="geometry" />
        </mxCell>
        <mxCell id="wh9IgdBoD6jiQ6J2SFbv-30" style="edgeStyle=orthogonalEdgeStyle;rounded=0;orthogonalLoop=1;jettySize=auto;html=1;exitX=1;exitY=0.5;exitDx=0;exitDy=0;entryX=0;entryY=0.5;entryDx=0;entryDy=0;entryPerimeter=0;endArrow=none;endFill=0;fontFamily=Times New Roman;" edge="1" parent="1" source="wh9IgdBoD6jiQ6J2SFbv-18" target="wh9IgdBoD6jiQ6J2SFbv-29">
          <mxGeometry relative="1" as="geometry" />
        </mxCell>
        <mxCell id="wh9IgdBoD6jiQ6J2SFbv-31" style="edgeStyle=orthogonalEdgeStyle;rounded=0;orthogonalLoop=1;jettySize=auto;html=1;exitX=0.5;exitY=1;exitDx=0;exitDy=0;entryX=0.5;entryY=0.5;entryDx=0;entryDy=-20;entryPerimeter=0;endArrow=none;endFill=0;fontFamily=Times New Roman;" edge="1" parent="1" source="wh9IgdBoD6jiQ6J2SFbv-28" target="wh9IgdBoD6jiQ6J2SFbv-29">
          <mxGeometry relative="1" as="geometry" />
        </mxCell>
      </root>
    </mxGraphModel>
  </diagram>
</mxfile>
